HIERARCHY
ROOT Hips
{
	OFFSET 0.000000 8.830580 0.000000
	CHANNELS 6 Xposition Yposition Zposition Zrotation Yrotation Xrotation 
	JOINT Spine
	{
		OFFSET 0.000000 0.010000 0.000000
		CHANNELS 3 Zrotation Yrotation Xrotation
		JOINT Spine1
		{
			OFFSET 0.000000 2.459130 0.000000
			CHANNELS 3 Zrotation Yrotation Xrotation
			JOINT Neck
			{
				OFFSET 0.000000 2.484630 0.000000
				CHANNELS 3 Zrotation Yrotation Xrotation
				JOINT Head_virtual
				{
					OFFSET 0.000000 0.000000 0.000000
					CHANNELS 3 Zrotation Yrotation Xrotation
					JOINT Head
					{
						OFFSET 0.000000 0.927525 0.000000
						CHANNELS 3 Zrotation Yrotation Xrotation
						End Site
						{
							OFFSET 0.000000 0.000000 0.000000
						}
					}
				}
				JOINT LeftUpArm_virtual
				{
					OFFSET 0.000000 0.000000 0.000000
					CHANNELS 3 Zrotation Yrotation Xrotation
					JOINT LeftUpArm
					{
						OFFSET 1.248820 0.000000 0.000000
						CHANNELS 3 Zrotation Yrotation Xrotation
						JOINT LeftForeArm
						{
							OFFSET 2.597580 0.000000 0.000000
							CHANNELS 3 Zrotation Yrotation Xrotation
							JOINT LeftHand
							{
								OFFSET 2.455420 0.000000 0.000000
								CHANNELS 3 Zrotation Yrotation Xrotation
								End Site
								{
									OFFSET 0.000000 0.000000 0.000000
								}
							}
						}
					}
				}
				JOINT RightUpArm_virtual
				{
					OFFSET -0.000000 -0.000000 -0.000000
					CHANNELS 3 Zrotation Yrotation Xrotation
					JOINT RightUpArm
					{
						OFFSET -1.248820 -0.000000 -0.000000
						CHANNELS 3 Zrotation Yrotation Xrotation
						JOINT RightForeArm
						{
							OFFSET -2.597580 -0.000000 -0.000000
							CHANNELS 3 Zrotation Yrotation Xrotation
							JOINT RightHand
							{
								OFFSET -2.455420 -0.000000 -0.000000
								CHANNELS 3 Zrotation Yrotation Xrotation
								End Site
								{
									OFFSET 0.000000 0.000000 0.000000
								}
							}
						}
					}
				}
			}
		}
	}
	JOINT LeftUpLeg
	{
		OFFSET 1.271939 0.000000 0.000000
		CHANNELS 3 Zrotation Yrotation Xrotation
		JOINT LeftLowLeg
		{
			OFFSET 0.000000 -4.342910 0.000000
			CHANNELS 3 Zrotation Yrotation Xrotation
			JOINT LeftFoot
			{
				OFFSET 0.000000 -4.487670 0.000000
				CHANNELS 3 Zrotation Yrotation Xrotation
				JOINT LeftToeBase
				{
					OFFSET 0.000000 0.000000 1.515070
					CHANNELS 3 Zrotation Yrotation Xrotation
					End Site
					{
						OFFSET 0.000000 0.000000 0.000000
					}
				}
			}
		}
	}
	JOINT RightUpLeg
	{
		OFFSET -1.271939 0.000000 0.000000
		CHANNELS 3 Zrotation Yrotation Xrotation
		JOINT RightLowLeg
		{
			OFFSET 0.000000 -4.342910 0.000000
			CHANNELS 3 Zrotation Yrotation Xrotation
			JOINT RightFoot
			{
				OFFSET 0.000000 -4.487670 0.000000
				CHANNELS 3 Zrotation Yrotation Xrotation
				JOINT RightToeBase
				{
					OFFSET 0.000000 0.000000 1.515070
					CHANNELS 3 Zrotation Yrotation Xrotation
					End Site
					{
						OFFSET 0.000000 0.000000 0.000000
					}
				}
			}
		}
	}
}
MOTION
Frames: 17
Frame Time: 0.041667
-17.763225 9.150941 43.808800 -175.079087 14.192794 -170.680460 5.550829 -3.537784 -6.396661 11.210963 -3.233802 12.361995 0.000000 0.000000 0.000000 -2.944618 -2.540199 -15.382162 0.497132 13.933816 -51.376070 -20.497299 6.441570 2.761750 -45.888599 -6.016710 30.665800 0.000000 -41.915298 0.000000 16.165501 9.354390 5.146160 20.253300 -0.787929 7.774890 30.668800 16.578699 24.166800 0.000000 40.812000 0.000000 -13.054600 0.320085 2.670630 7.874816 1.986619 -15.279107 0.000000 0.000000 22.479099 -13.598952 0.717747 1.073385 0.000000 0.000000 -39.323200 6.676992 1.205564 -9.392308 0.000000 0.000000 5.442940 7.702303 0.485960 12.407813 0.000000 0.000000 -28.727800 
-17.821148 9.149178 43.808910 -174.946679 14.257461 -170.538611 5.631459 -3.498386 -6.158270 11.497072 -3.215428 12.460831 0.000000 0.000000 0.000000 -3.078792 -2.502362 -15.759553 0.485117 13.857480 -51.479015 -20.718100 6.405590 2.812300 -45.697498 -6.375270 31.104401 0.000000 -41.902401 0.000000 16.176701 9.276730 4.851050 20.435200 -0.499591 8.220040 30.736000 17.311600 23.562401 0.000000 39.327900 0.000000 -12.707600 0.093436 1.954530 7.678396 1.959548 -15.226320 0.000000 0.000000 22.108801 -13.970717 0.741920 0.948479 0.000000 0.000000 -39.096800 6.439816 1.376213 -9.599566 0.000000 0.000000 5.443550 7.921855 0.372815 12.478708 0.000000 0.000000 -28.734100 
-17.878948 9.149231 43.808940 -174.911936 14.378920 -170.450119 5.532957 -3.516400 -5.929934 11.770679 -3.245667 12.711931 0.000000 0.000000 0.000000 -3.257402 -2.309850 -16.293930 0.530915 13.876311 -51.468506 -21.036501 6.286210 2.661130 -45.310699 -6.577540 31.702200 0.000000 -41.924000 0.000000 16.143299 9.299460 4.676130 20.680500 -0.116480 8.568950 30.758801 18.107000 23.177999 0.000000 37.656101 0.000000 -12.282800 -0.103992 1.076470 7.335306 2.278847 -15.110535 0.000000 0.000000 21.550200 -13.901872 0.691477 1.178786 0.000000 0.000000 -38.895901 6.109594 1.605480 -9.820113 0.000000 0.000000 5.531160 8.106445 0.203282 12.483460 0.000000 0.000000 -28.619000 
-17.938568 9.151591 43.811218 -174.928028 14.469943 -170.268753 5.316093 -3.586402 -5.740370 12.092702 -3.305137 12.939295 0.000000 0.000000 0.000000 -3.420722 -2.081081 -16.895299 0.583899 13.929665 -51.366280 -21.367399 6.106800 2.656420 -44.885101 -6.883040 32.212299 0.000000 -41.856899 0.000000 15.472100 9.026960 6.724730 20.871099 0.237230 8.852280 30.820999 19.048700 23.177900 0.000000 35.766602 0.000000 -11.959100 -0.542141 -0.161235 6.847795 3.159002 -15.141357 0.000000 0.000000 20.963499 -13.795160 0.288992 1.633220 0.000000 0.000000 -38.901100 5.728475 1.850814 -10.212985 0.000000 0.000000 5.703720 8.145732 -0.071919 12.518720 0.000000 0.000000 -28.684600 
-18.000955 9.155906 43.819504 -175.017210 14.488770 -170.031620 5.127824 -3.652219 -5.481296 12.138938 -3.367844 13.110345 0.000000 0.000000 0.000000 -3.337452 -1.858393 -17.710144 0.597209 14.073533 -51.285235 -21.537600 5.835490 2.732110 -44.476601 -7.276130 32.625801 0.000000 -41.619801 0.000000 15.497200 8.771940 6.404140 21.157000 0.510090 8.906430 31.082001 20.046499 23.343201 0.000000 33.745300 0.000000 -11.590300 -0.834038 -0.937538 6.246386 4.154434 -15.383518 0.000000 0.000000 20.532000 -13.422512 -0.238715 2.138018 0.000000 0.000000 -38.434700 5.317580 1.819951 -10.756791 0.000000 0.000000 5.954950 8.101478 -0.216367 12.581731 0.000000 0.000000 -28.659800 
-18.064751 9.161848 43.832192 -175.124668 14.589287 -169.790326 4.888095 -3.693146 -5.116674 12.149754 -3.409896 13.339952 0.000000 0.000000 0.000000 -3.290983 -1.613977 -18.746778 0.588121 14.199420 -51.243052 -21.707399 5.626990 2.637180 -43.977100 -7.651400 33.513901 0.000000 -41.366600 0.000000 16.315901 8.353670 5.759020 21.367800 0.781100 8.894930 31.496700 21.070801 23.173201 0.000000 31.974100 0.000000 -10.759400 -1.573480 -0.422043 5.665601 4.696295 -15.543597 0.000000 0.000000 19.933300 -13.134685 -0.350816 2.625250 0.000000 0.000000 -38.309999 4.868358 2.017511 -11.413670 0.000000 0.000000 6.313220 7.894940 -0.594182 12.700724 0.000000 0.000000 -28.646300 
-18.130854 9.167431 43.850332 -175.218863 14.823419 -169.588298 4.690113 -3.661774 -4.516700 11.989807 -3.379151 13.451126 0.000000 0.000000 0.000000 -3.181014 -1.364617 -19.738141 0.412550 14.415021 -51.461417 -21.604200 5.377470 2.565400 -43.774200 -8.109260 33.996201 0.000000 -40.943901 0.000000 16.565901 8.448440 5.293940 21.554701 1.203490 8.794730 32.093399 21.775999 23.299601 0.000000 30.305500 0.000000 -10.721400 -1.572370 0.140734 5.128500 5.141889 -15.535185 0.000000 0.000000 19.108200 -12.967282 -0.460955 3.102201 0.000000 0.000000 -38.225800 4.410209 2.294947 -12.166608 0.000000 0.000000 6.821940 7.704374 -0.926814 12.905738 0.000000 0.000000 -28.743200 
-18.196942 9.169962 43.874971 -175.287282 15.070163 -169.400323 4.585458 -3.497270 -3.726139 11.622166 -3.227116 13.490396 0.000000 0.000000 0.000000 -2.920211 -1.168286 -20.950939 0.246159 14.603516 -51.776843 -21.364401 5.053030 2.529300 -43.514500 -8.714720 34.521400 0.000000 -40.612301 0.000000 16.851900 8.650210 4.929960 21.813999 1.510880 8.644310 32.665100 22.312201 23.384701 0.000000 29.167299 0.000000 -10.693900 -1.733850 0.800853 4.599132 5.706848 -15.609422 0.000000 0.000000 18.417200 -12.661401 -0.660114 3.502333 0.000000 0.000000 -38.109699 3.943928 2.834792 -13.025419 0.000000 0.000000 7.503880 7.587080 -1.485907 13.004189 0.000000 0.000000 -28.726200 
-18.265093 9.169504 43.904621 -175.367168 15.340127 -169.114726 4.519712 -3.291590 -2.933694 11.157758 -3.048589 13.583992 0.000000 0.000000 0.000000 -2.733504 -0.972033 -22.245647 0.062196 14.766497 -52.336013 -21.127600 4.727380 2.481570 -43.149700 -9.437840 35.049000 0.000000 -40.378799 0.000000 17.112200 8.558290 4.680870 22.077400 1.866910 8.538200 33.153900 22.694500 23.049400 0.000000 28.703501 0.000000 -10.472300 -2.009490 1.658610 4.027528 6.144481 -15.911713 0.000000 0.000000 17.917400 -12.320688 -0.677207 3.792365 0.000000 0.000000 -37.995300 3.354975 3.754741 -14.135470 0.000000 0.000000 8.428950 7.661489 -2.220304 12.912862 0.000000 0.000000 -28.569800 
-18.334702 9.167121 43.937328 -175.426417 15.544344 -168.618067 4.498031 -3.093772 -2.308747 10.713908 -2.892114 13.776793 0.000000 0.000000 0.000000 -2.661458 -0.795185 -23.702239 -0.065233 14.853097 -52.946534 -21.039700 4.338220 2.374670 -42.658798 -10.242100 35.536400 0.000000 -40.166801 0.000000 17.396601 8.323900 4.550760 22.259001 2.189300 8.502820 33.509800 23.075500 23.218800 0.000000 28.598400 0.000000 -10.951500 -2.100850 1.270830 3.437187 6.489538 -16.524083 0.000000 0.000000 17.536600 -11.886303 -0.590327 4.021614 0.000000 0.000000 -37.987400 2.824702 4.108571 -15.426026 0.000000 0.000000 9.285970 7.932898 -2.384317 12.899190 0.000000 0.000000 -28.534700 
-18.403536 9.162514 43.970102 -175.495096 15.705014 -167.954799 4.522870 -2.783949 -1.894927 10.244648 -2.638501 14.083037 0.000000 0.000000 0.000000 -2.591855 -0.676574 -25.174026 -0.024278 14.839831 -53.514145 -20.994400 3.804480 2.340340 -42.114300 -11.257600 35.704800 0.000000 -40.124100 0.000000 17.253500 8.716510 4.853610 22.368500 2.393890 8.567330 33.797501 23.402800 23.001699 0.000000 28.809099 0.000000 -11.163200 -1.448280 2.281520 2.841730 6.692182 -17.383978 0.000000 0.000000 17.301001 -11.474667 -0.447735 4.160327 0.000000 0.000000 -37.953100 2.343218 4.016568 -16.883107 0.000000 0.000000 10.147600 8.238070 -2.149587 12.871543 0.000000 0.000000 -28.593200 
-18.472456 9.156792 44.000844 -175.600425 15.816143 -167.293007 4.550555 -2.546867 -1.526418 9.830400 -2.453208 14.378962 0.000000 0.000000 0.000000 -2.972936 -0.557492 -26.456197 0.428081 14.684976 -54.034805 -21.040100 3.353520 2.325060 -41.580200 -12.294100 35.799099 0.000000 -40.023201 0.000000 17.374800 8.692810 5.176460 22.598400 2.644220 8.826900 33.614300 23.588699 22.772400 0.000000 29.977100 0.000000 -11.353000 -1.872650 2.768870 2.243820 6.741206 -18.270125 0.000000 0.000000 17.119699 -11.061305 -0.303532 4.277960 0.000000 0.000000 -37.919300 1.946848 3.409693 -18.258358 0.000000 0.000000 10.830800 8.385044 -1.549957 12.926932 0.000000 0.000000 -28.798900 
-18.541077 9.150135 44.030362 -175.660155 15.866080 -166.792098 4.468194 -2.409148 -1.469499 9.773431 -2.419371 15.305076 0.000000 0.000000 0.000000 -3.575097 -0.572235 -27.409531 0.851196 14.477878 -54.703697 -21.033701 2.630160 2.447080 -41.371700 -13.325200 35.118198 0.000000 -40.019199 0.000000 17.622601 8.728230 5.024810 22.374500 3.419910 8.968960 33.516998 23.388300 22.719801 0.000000 31.267401 0.000000 -11.946700 -1.655190 2.161050 1.793987 6.393786 -18.980531 0.000000 0.000000 16.961100 -10.725041 0.076835 4.285904 0.000000 0.000000 -37.810699 1.653557 2.642245 -19.365108 0.000000 0.000000 11.407800 8.727639 -0.793530 13.015570 0.000000 0.000000 -28.946300 
-18.608955 9.143924 44.054132 -175.700097 15.907575 -166.334252 4.544242 -2.160467 -1.308120 9.609679 -2.286020 16.243385 0.000000 0.000000 0.000000 -4.159833 -0.629870 -28.858368 1.506422 14.113894 -55.101883 -21.105101 2.549340 2.156750 -41.240501 -14.765500 34.938301 0.000000 -40.151798 0.000000 18.048401 8.884870 5.537230 22.436501 3.681760 8.882060 33.125702 23.397800 23.079100 0.000000 32.489399 0.000000 -13.023900 -0.577151 2.551890 1.392452 5.951489 -19.597917 0.000000 0.000000 16.768000 -10.379274 0.550639 4.302500 0.000000 0.000000 -37.741199 1.360882 1.968538 -20.350842 0.000000 0.000000 11.916300 9.145597 -0.101654 13.119701 0.000000 0.000000 -29.113200 
-18.678010 9.139212 44.077007 -175.732337 16.019846 -166.034270 4.599963 -1.813329 -0.853937 9.598421 -2.003323 16.768152 0.000000 0.000000 0.000000 -4.529984 -0.782276 -29.863150 1.954946 13.790725 -55.476293 -21.105101 2.216990 1.932930 -41.380901 -15.566800 34.402599 0.000000 -40.813801 0.000000 19.058201 8.971970 6.053730 22.445801 3.857200 9.070850 32.757000 23.326300 23.114100 0.000000 33.451099 0.000000 -13.871400 -0.078106 1.475490 0.987923 5.675635 -20.049976 0.000000 0.000000 16.588800 -10.039346 0.894842 4.400138 0.000000 0.000000 -37.685600 1.207571 0.840664 -21.095179 0.000000 0.000000 12.230400 9.511764 1.047794 13.444510 0.000000 0.000000 -29.231300 
-18.744655 9.134638 44.097264 -175.812258 16.321449 -165.725740 4.485176 -1.435114 -0.407105 9.769825 -1.664450 17.156864 0.000000 0.000000 0.000000 -4.916339 -0.918351 -30.655913 2.335837 13.532687 -55.805919 -21.237600 2.244450 2.207590 -41.388199 -16.602400 33.635799 0.000000 -42.121700 0.000000 20.377701 9.389460 6.030140 22.371099 3.977710 9.478010 32.473701 23.500099 22.970200 0.000000 33.804798 0.000000 -14.949600 0.748841 1.392450 0.415593 5.943043 -20.450793 0.000000 0.000000 16.329100 -9.633651 0.923646 4.586897 0.000000 0.000000 -37.749500 0.986006 -0.074478 -21.937619 0.000000 0.000000 12.673400 9.973474 2.154507 13.743696 0.000000 0.000000 -29.467200 
-18.812318 9.129806 44.118101 -175.932447 16.488880 -165.215293 4.436100 -1.156992 -0.216436 9.839849 -1.408828 17.363116 0.000000 0.000000 0.000000 -5.144353 -0.957627 -30.990114 2.534622 13.454142 -56.219349 -21.122700 2.436070 2.356840 -41.698200 -17.336901 33.309200 0.000000 -43.806301 0.000000 21.958300 9.896990 5.978270 22.226101 4.153750 9.838840 32.505901 23.667299 22.953800 0.000000 33.779598 0.000000 -15.801700 0.375618 0.304568 -0.292415 6.405143 -21.083522 0.000000 0.000000 16.018499 -9.167939 0.735268 4.878203 0.000000 0.000000 -37.776300 0.803250 -1.207739 -23.017008 0.000000 0.000000 13.167100 10.496732 3.317016 14.047465 0.000000 0.000000 -29.722400 
